<svg width="40" height="32" viewBox="0 0 40 32" fill="none" xmlns="http://www.w3.org/2000/svg">
<path d="M7.20001 4.47998L9.60001 26.24L20.8 28.8L32 26.24C32.8 18.9869 33.6 11.7331 34.4 4.47998H7.20001ZM8.94689 5.75998H32.6531L30.5031 25.2512L20.8 27.4687L11.0969 25.2512L8.94689 5.75998ZM14.8406 9.59998L14.0719 17.28H24.4641L24.136 20.48L20.8 20.8762L17.5047 20.48L17.3594 19.2H14.2719L14.5844 22.4L20.7922 23.68L27.0078 22.4L27.8 14.72H17.6719L17.9281 12.16H24.6156L24.8 13.44H27.7594L27.2 9.59998H14.8406Z" fill="#471457"/>
</svg>
