<svg width="38" height="32" viewBox="0 0 38 32" fill="none" xmlns="http://www.w3.org/2000/svg">
<path d="M6.84003 4.47998L9.12003 26.24L19.76 28.8L30.4 26.24C31.16 18.9869 31.92 11.7331 32.68 4.47998H6.84003ZM8.49956 5.75998H31.0205L28.978 25.2512L19.76 27.4687L10.5421 25.2512L8.49956 5.75998ZM14.0986 9.59998L13.3683 17.28H23.2409L22.9292 20.48L19.76 20.8762L16.6295 20.48L16.4914 19.2H13.5583L13.8552 22.4L19.7526 23.68L25.6574 22.4L26.41 14.72H16.7883L17.0317 12.16H23.3849L23.56 13.44H26.3714L25.84 9.59998H14.0986Z" fill="#996AA8"/>
</svg>
