<svg width="38" height="32" viewBox="0 0 38 32" fill="none" xmlns="http://www.w3.org/2000/svg">
<path d="M5.9375 5V27H32.0625V5H5.9375ZM8.3125 7H29.6875V25H8.3125V7ZM24.0399 15C22.3477 15 21.2544 15.9121 21.2544 17.1191C21.2544 18.4301 22.1673 19.0568 23.5436 19.5508L24.019 19.7227C24.8883 20.0457 25.406 20.2342 25.406 20.7852C25.406 21.2502 24.8992 21.584 24.1095 21.584C23.1737 21.584 22.6416 21.1665 22.2355 20.6055L20.6792 21.3555C21.2314 22.2865 22.3818 23 24.1536 23C25.9586 23 27.3125 22.2116 27.3125 20.7676C27.3125 19.4186 26.3985 18.8192 24.7728 18.2402L24.2997 18.0684C23.4767 17.7644 23.1261 17.5648 23.1261 17.0898C23.1261 16.6998 23.4759 16.3965 24.0399 16.3965C24.5933 16.3965 24.9414 16.5958 25.2692 17.0898L26.7605 16.2832C26.1287 15.3522 25.2583 15 24.0399 15ZM17.0935 15.0957V20.5586C17.0935 21.3566 16.6871 21.5645 16.066 21.5645C15.4117 21.5645 15.1301 21.1853 14.8368 20.7383L13.2805 21.5273C13.7318 22.3353 14.6213 23 16.1449 23C17.8371 23 19 22.2392 19 20.5762V15.0957H17.0935Z" fill="#996AA8"/>
</svg>
