<svg width="36" height="25" viewBox="0 0 36 25" fill="none" xmlns="http://www.w3.org/2000/svg">
<path d="M23.016 0.967999C23.072 1.00533 23.0813 1.06133 23.044 1.136C23.0253 1.21067 22.9787 1.29467 22.904 1.388C22.848 1.48133 22.7733 1.57467 22.68 1.668C22.5867 1.76133 22.5027 1.82667 22.428 1.864C22.036 1.976 21.672 2.144 21.336 2.368C21.0187 2.592 20.72 2.91867 20.44 3.348C20.16 3.77733 19.8893 4.328 19.628 5C19.3853 5.65333 19.1427 6.46533 18.9 7.436C18.5827 8.668 18.2373 9.816 17.864 10.88C17.4907 11.944 17.0893 12.952 16.66 13.904C16.884 13.8667 17.0987 13.8107 17.304 13.736C17.5093 13.6427 17.668 13.5587 17.78 13.484C17.9107 13.484 17.948 13.5493 17.892 13.68C17.556 13.9227 17.108 14.0907 16.548 14.184C15.7453 15.9013 14.8587 17.3853 13.888 18.636C12.9173 19.8867 11.8907 20.9227 10.808 21.744C9.72533 22.5653 8.58667 23.172 7.392 23.564C6.216 23.9747 5.012 24.18 3.78 24.18C2.492 24.18 1.54 23.872 0.924 23.256C0.308 22.6587 0 21.912 0 21.016C0 20.3067 0.196 19.5693 0.588 18.804C0.98 18.0387 1.512 17.32 2.184 16.648C2.87467 15.976 3.68667 15.388 4.62 14.884C5.572 14.38 6.608 14.0253 7.728 13.82C7.82133 13.82 7.868 13.8573 7.868 13.932C7.868 14.0067 7.82133 14.0627 7.728 14.1C6.73867 14.2867 5.83333 14.5947 5.012 15.024C4.19067 15.4347 3.48133 15.92 2.884 16.48C2.28667 17.04 1.82 17.6467 1.484 18.3C1.148 18.9533 0.98 19.616 0.98 20.288C0.98 21.2213 1.26 21.968 1.82 22.528C2.39867 23.1067 3.36933 23.396 4.732 23.396C5.83333 23.396 6.888 23.228 7.896 22.892C8.92267 22.556 9.89333 22.024 10.808 21.296C11.7227 20.568 12.5813 19.6253 13.384 18.468C14.2053 17.3107 14.9707 15.9107 15.68 14.268C14.6907 14.2307 13.888 13.8853 13.272 13.232C12.6747 12.56 12.376 11.664 12.376 10.544C12.376 9.38667 12.656 8.23867 13.216 7.1C13.776 5.96133 14.532 4.93467 15.484 4.02C16.4547 3.10533 17.584 2.368 18.872 1.808C20.1787 1.248 21.56 0.967999 23.016 0.967999ZM17.724 8.052C18.1347 6.428 18.6293 5.13067 19.208 4.16C19.7867 3.18933 20.4587 2.48 21.224 2.032C19.936 2.2 18.7693 2.564 17.724 3.124C16.6787 3.684 15.7827 4.36533 15.036 5.168C14.308 5.952 13.7387 6.81067 13.328 7.744C12.936 8.65867 12.74 9.55467 12.74 10.432C12.74 11.5147 13.0107 12.364 13.552 12.98C14.0933 13.596 14.84 13.932 15.792 13.988C16.4827 12.2893 17.1267 10.3107 17.724 8.052ZM30.7941 0.967999C31.4661 0.967999 32.0821 1.00533 32.6421 1.08C33.2021 1.136 33.6781 1.22933 34.0701 1.36C34.4808 1.49067 34.7981 1.64933 35.0221 1.836C35.2648 2.004 35.3861 2.2 35.3861 2.424C35.3861 2.57333 35.3488 2.76 35.2741 2.984C35.2181 3.18933 35.1434 3.404 35.0501 3.628C34.9568 3.852 34.8448 4.076 34.7141 4.3C34.6021 4.524 34.4901 4.71067 34.3781 4.86C34.3221 4.89733 34.2568 4.89733 34.1821 4.86C34.1261 4.804 34.1168 4.73867 34.1541 4.664C34.5461 3.97333 34.6301 3.44133 34.4061 3.068C34.1448 2.63867 33.6221 2.27467 32.8381 1.976C32.0541 1.65867 31.1488 1.5 30.1221 1.5C28.7781 1.5 27.5554 1.74267 26.4541 2.228C25.3528 2.69467 24.4008 3.36667 23.5981 4.244C22.8141 5.10267 22.1981 6.12933 21.7501 7.324C21.3208 8.51867 21.1061 9.83467 21.1061 11.272C21.1061 12.3173 21.2461 13.288 21.5261 14.184C21.8061 15.0613 22.2168 15.8267 22.7581 16.48C23.2994 17.1147 23.9621 17.6187 24.7461 17.992C25.5301 18.3467 26.4261 18.524 27.4341 18.524C28.7781 18.524 29.8981 18.1133 30.7941 17.292C31.6901 16.452 32.3248 15.3413 32.6981 13.96C32.7354 13.8667 32.7914 13.8293 32.8661 13.848C32.9594 13.8667 33.0061 13.9227 33.0061 14.016C32.9314 14.408 32.8194 14.8467 32.6701 15.332C32.5208 15.7987 32.3621 16.2467 32.1941 16.676C32.0261 17.0867 31.8581 17.4507 31.6901 17.768C31.5408 18.0667 31.4101 18.2347 31.2981 18.272C30.7008 18.496 30.0381 18.6733 29.3101 18.804C28.5821 18.9347 27.8074 19 26.9861 19C25.8474 19 24.8208 18.832 23.9061 18.496C23.0101 18.1413 22.2448 17.656 21.6101 17.04C20.9941 16.424 20.5181 15.696 20.1821 14.856C19.8461 14.016 19.6781 13.1107 19.6781 12.14C19.6781 10.6467 19.9488 9.228 20.4901 7.884C21.0314 6.52133 21.7874 5.336 22.7581 4.328C23.7474 3.30133 24.9234 2.48933 26.2861 1.892C27.6488 1.276 29.1514 0.967999 30.7941 0.967999Z" fill="#C39BD0"/>
</svg>
