<svg width="277" height="33" viewBox="0 0 277 33" fill="none" xmlns="http://www.w3.org/2000/svg">
<path d="M0.988636 15.4659V13.1818C2.29924 13.1818 3.20833 12.9205 3.71591 12.3977C4.22349 11.875 4.47727 11.0303 4.47727 9.86364V7.35227C4.47727 5.95076 4.67045 4.82955 5.05682 3.98864C5.45076 3.14015 5.99621 2.5 6.69318 2.06818C7.39773 1.63636 8.23106 1.34848 9.19318 1.20454C10.1553 1.06061 11.2083 0.988636 12.3523 0.988636V4.60227C11.4583 4.60227 10.7765 4.7197 10.3068 4.95454C9.8447 5.18182 9.5303 5.53788 9.36364 6.02273C9.19697 6.5 9.11364 7.10606 9.11364 7.84091V11.1591C9.11364 11.7348 9.00758 12.2841 8.79545 12.8068C8.58333 13.322 8.18939 13.7803 7.61364 14.1818C7.03788 14.5758 6.21591 14.8902 5.14773 15.125C4.07955 15.3523 2.69318 15.4659 0.988636 15.4659ZM12.3523 29.75C11.2083 29.75 10.1553 29.678 9.19318 29.5341C8.23106 29.3902 7.39773 29.1023 6.69318 28.6705C5.99621 28.2386 5.45076 27.6023 5.05682 26.7614C4.67045 25.9129 4.47727 24.7879 4.47727 23.3864V20.8636C4.47727 19.697 4.22349 18.8523 3.71591 18.3295C3.20833 17.8068 2.29924 17.5455 0.988636 17.5455V15.2614C2.69318 15.2614 4.07955 15.3788 5.14773 15.6136C6.21591 15.8409 7.03788 16.1553 7.61364 16.5568C8.18939 16.9508 8.58333 17.4091 8.79545 17.9318C9.00758 18.447 9.11364 18.9962 9.11364 19.5795V22.8977C9.11364 23.625 9.19697 24.2311 9.36364 24.7159C9.5303 25.1932 9.8447 25.5492 10.3068 25.7841C10.7765 26.0114 11.4583 26.125 12.3523 26.125V29.75ZM0.988636 17.5455V13.1818H5.06818V17.5455H0.988636ZM24.4347 3.72727H29.2983V19.9545C29.2983 21.4545 28.9612 22.7576 28.2869 23.8636C27.6203 24.9697 26.6922 25.822 25.5028 26.4205C24.3134 27.0189 22.9309 27.3182 21.3551 27.3182C19.9536 27.3182 18.6809 27.072 17.5369 26.5795C16.4006 26.0795 15.4991 25.322 14.8324 24.3068C14.1657 23.2841 13.8362 22 13.8438 20.4545H18.7415C18.7566 21.0682 18.8816 21.5947 19.1165 22.0341C19.3589 22.4659 19.6884 22.7992 20.1051 23.0341C20.5294 23.2614 21.0294 23.375 21.6051 23.375C22.2112 23.375 22.7225 23.2462 23.1392 22.9886C23.5634 22.7235 23.8854 22.3371 24.1051 21.8295C24.3248 21.322 24.4347 20.697 24.4347 19.9545V3.72727ZM44.4688 19.5682V9.54545H49.3097V27H44.6619V23.8295H44.4801C44.0862 24.8523 43.4309 25.6742 42.5142 26.2955C41.6051 26.9167 40.4953 27.2273 39.1847 27.2273C38.018 27.2273 36.9915 26.9621 36.1051 26.4318C35.2188 25.9015 34.5256 25.1477 34.0256 24.1705C33.5331 23.1932 33.2831 22.0227 33.2756 20.6591V9.54545H38.1165V19.7955C38.1241 20.8258 38.4006 21.6402 38.946 22.2386C39.4915 22.8371 40.2225 23.1364 41.1392 23.1364C41.7225 23.1364 42.268 23.0038 42.7756 22.7386C43.2831 22.4659 43.6922 22.0644 44.0028 21.5341C44.321 21.0038 44.4763 20.3485 44.4688 19.5682ZM58.0227 3.72727V27H53.1818V3.72727H58.0227ZM61.9006 27V9.54545H66.7415V27H61.9006ZM64.3324 7.29545C63.6127 7.29545 62.9953 7.05682 62.4801 6.57954C61.9725 6.0947 61.7188 5.51515 61.7188 4.84091C61.7188 4.17424 61.9725 3.60227 62.4801 3.125C62.9953 2.64015 63.6127 2.39773 64.3324 2.39773C65.0521 2.39773 65.6657 2.64015 66.1733 3.125C66.6884 3.60227 66.946 4.17424 66.946 4.84091C66.946 5.51515 66.6884 6.0947 66.1733 6.57954C65.6657 7.05682 65.0521 7.29545 64.3324 7.29545ZM75.5966 27.3295C74.483 27.3295 73.4905 27.1364 72.6193 26.75C71.7481 26.3561 71.0587 25.7765 70.5511 25.0114C70.0511 24.2386 69.8011 23.2765 69.8011 22.125C69.8011 21.1553 69.9792 20.3409 70.3352 19.6818C70.6913 19.0227 71.1761 18.4924 71.7898 18.0909C72.4034 17.6894 73.1004 17.3864 73.8807 17.1818C74.6686 16.9773 75.4943 16.8333 76.358 16.75C77.3731 16.6439 78.1913 16.5455 78.8125 16.4545C79.4337 16.3561 79.8845 16.2121 80.1648 16.0227C80.4451 15.8333 80.5852 15.553 80.5852 15.1818V15.1136C80.5852 14.3939 80.358 13.8371 79.9034 13.4432C79.4564 13.0492 78.8201 12.8523 77.9943 12.8523C77.1231 12.8523 76.4299 13.0455 75.9148 13.4318C75.3996 13.8106 75.0587 14.2879 74.892 14.8636L70.4148 14.5C70.642 13.4394 71.089 12.5227 71.7557 11.75C72.4223 10.9697 73.2822 10.3712 74.3352 9.95454C75.3958 9.5303 76.6231 9.31818 78.017 9.31818C78.9867 9.31818 79.9148 9.43182 80.8011 9.65909C81.6951 9.88636 82.4867 10.2386 83.1761 10.7159C83.8731 11.1932 84.4223 11.8068 84.8239 12.5568C85.2254 13.2992 85.4261 14.1894 85.4261 15.2273V27H80.8352V24.5795H80.6989C80.4186 25.125 80.0436 25.6061 79.5739 26.0227C79.1042 26.4318 78.5398 26.7538 77.8807 26.9886C77.2216 27.2159 76.4602 27.3295 75.5966 27.3295ZM76.983 23.9886C77.6951 23.9886 78.3239 23.8485 78.8693 23.5682C79.4148 23.2803 79.8428 22.8939 80.1534 22.4091C80.464 21.9242 80.6193 21.375 80.6193 20.7614V18.9091C80.4678 19.0076 80.2595 19.0985 79.9943 19.1818C79.7367 19.2576 79.4451 19.3295 79.1193 19.3977C78.7936 19.4583 78.4678 19.5152 78.142 19.5682C77.8163 19.6136 77.5208 19.6553 77.2557 19.6932C76.6875 19.7765 76.1913 19.9091 75.767 20.0909C75.3428 20.2727 75.0133 20.5189 74.7784 20.8295C74.5436 21.1326 74.4261 21.5114 74.4261 21.9659C74.4261 22.625 74.6648 23.1288 75.142 23.4773C75.6269 23.8182 76.2405 23.9886 76.983 23.9886ZM94.0227 16.9091V27H89.1818V9.54545H93.7955V12.625H94C94.3864 11.6098 95.0341 10.8068 95.9432 10.2159C96.8523 9.61742 97.9545 9.31818 99.25 9.31818C100.462 9.31818 101.519 9.58333 102.42 10.1136C103.322 10.6439 104.023 11.4015 104.523 12.3864C105.023 13.3636 105.273 14.5303 105.273 15.8864V27H100.432V16.75C100.439 15.6818 100.167 14.8485 99.6136 14.25C99.0606 13.6439 98.2992 13.3409 97.3295 13.3409C96.678 13.3409 96.1023 13.4811 95.6023 13.7614C95.1098 14.0417 94.7235 14.4508 94.4432 14.9886C94.1705 15.5189 94.0303 16.1591 94.0227 16.9091ZM114.065 27.3295C112.952 27.3295 111.959 27.1364 111.088 26.75C110.217 26.3561 109.527 25.7765 109.02 25.0114C108.52 24.2386 108.27 23.2765 108.27 22.125C108.27 21.1553 108.448 20.3409 108.804 19.6818C109.16 19.0227 109.645 18.4924 110.259 18.0909C110.872 17.6894 111.569 17.3864 112.349 17.1818C113.137 16.9773 113.963 16.8333 114.827 16.75C115.842 16.6439 116.66 16.5455 117.281 16.4545C117.902 16.3561 118.353 16.2121 118.634 16.0227C118.914 15.8333 119.054 15.553 119.054 15.1818V15.1136C119.054 14.3939 118.827 13.8371 118.372 13.4432C117.925 13.0492 117.289 12.8523 116.463 12.8523C115.592 12.8523 114.899 13.0455 114.384 13.4318C113.868 13.8106 113.527 14.2879 113.361 14.8636L108.884 14.5C109.111 13.4394 109.558 12.5227 110.224 11.75C110.891 10.9697 111.751 10.3712 112.804 9.95454C113.865 9.5303 115.092 9.31818 116.486 9.31818C117.455 9.31818 118.384 9.43182 119.27 9.65909C120.164 9.88636 120.955 10.2386 121.645 10.7159C122.342 11.1932 122.891 11.8068 123.293 12.5568C123.694 13.2992 123.895 14.1894 123.895 15.2273V27H119.304V24.5795H119.168C118.887 25.125 118.512 25.6061 118.043 26.0227C117.573 26.4318 117.009 26.7538 116.349 26.9886C115.69 27.2159 114.929 27.3295 114.065 27.3295ZM115.452 23.9886C116.164 23.9886 116.793 23.8485 117.338 23.5682C117.884 23.2803 118.312 22.8939 118.622 22.4091C118.933 21.9242 119.088 21.375 119.088 20.7614V18.9091C118.937 19.0076 118.728 19.0985 118.463 19.1818C118.205 19.2576 117.914 19.3295 117.588 19.3977C117.262 19.4583 116.937 19.5152 116.611 19.5682C116.285 19.6136 115.99 19.6553 115.724 19.6932C115.156 19.7765 114.66 19.9091 114.236 20.0909C113.812 20.2727 113.482 20.5189 113.247 20.8295C113.012 21.1326 112.895 21.5114 112.895 21.9659C112.895 22.625 113.134 23.1288 113.611 23.4773C114.096 23.8182 114.709 23.9886 115.452 23.9886ZM155.682 11.875H150.705C150.614 11.2311 150.428 10.6591 150.148 10.1591C149.867 9.65151 149.508 9.2197 149.068 8.86364C148.629 8.50757 148.121 8.23485 147.545 8.04545C146.977 7.85606 146.36 7.76136 145.693 7.76136C144.489 7.76136 143.439 8.06061 142.545 8.65909C141.652 9.25 140.958 10.1136 140.466 11.25C139.973 12.3788 139.727 13.75 139.727 15.3636C139.727 17.0227 139.973 18.4167 140.466 19.5455C140.966 20.6742 141.663 21.5265 142.557 22.1023C143.451 22.678 144.485 22.9659 145.659 22.9659C146.318 22.9659 146.928 22.8788 147.489 22.7045C148.057 22.5303 148.561 22.2765 149 21.9432C149.439 21.6023 149.803 21.1894 150.091 20.7045C150.386 20.2197 150.591 19.6667 150.705 19.0455L155.682 19.0682C155.553 20.1364 155.231 21.1667 154.716 22.1591C154.208 23.1439 153.523 24.0265 152.659 24.8068C151.803 25.5795 150.78 26.1932 149.591 26.6477C148.409 27.0947 147.072 27.3182 145.58 27.3182C143.504 27.3182 141.648 26.8485 140.011 25.9091C138.383 24.9697 137.095 23.6098 136.148 21.8295C135.208 20.0492 134.739 17.8939 134.739 15.3636C134.739 12.8258 135.216 10.6667 136.17 8.88636C137.125 7.10606 138.42 5.75 140.057 4.81818C141.693 3.87879 143.534 3.40909 145.58 3.40909C146.928 3.40909 148.178 3.59848 149.33 3.97727C150.489 4.35606 151.515 4.90909 152.409 5.63636C153.303 6.35606 154.03 7.23864 154.591 8.28409C155.159 9.32954 155.523 10.5265 155.682 11.875ZM164.097 27.3295C162.983 27.3295 161.991 27.1364 161.119 26.75C160.248 26.3561 159.559 25.7765 159.051 25.0114C158.551 24.2386 158.301 23.2765 158.301 22.125C158.301 21.1553 158.479 20.3409 158.835 19.6818C159.191 19.0227 159.676 18.4924 160.29 18.0909C160.903 17.6894 161.6 17.3864 162.381 17.1818C163.169 16.9773 163.994 16.8333 164.858 16.75C165.873 16.6439 166.691 16.5455 167.312 16.4545C167.934 16.3561 168.384 16.2121 168.665 16.0227C168.945 15.8333 169.085 15.553 169.085 15.1818V15.1136C169.085 14.3939 168.858 13.8371 168.403 13.4432C167.956 13.0492 167.32 12.8523 166.494 12.8523C165.623 12.8523 164.93 13.0455 164.415 13.4318C163.9 13.8106 163.559 14.2879 163.392 14.8636L158.915 14.5C159.142 13.4394 159.589 12.5227 160.256 11.75C160.922 10.9697 161.782 10.3712 162.835 9.95454C163.896 9.5303 165.123 9.31818 166.517 9.31818C167.487 9.31818 168.415 9.43182 169.301 9.65909C170.195 9.88636 170.987 10.2386 171.676 10.7159C172.373 11.1932 172.922 11.8068 173.324 12.5568C173.725 13.2992 173.926 14.1894 173.926 15.2273V27H169.335V24.5795H169.199C168.919 25.125 168.544 25.6061 168.074 26.0227C167.604 26.4318 167.04 26.7538 166.381 26.9886C165.722 27.2159 164.96 27.3295 164.097 27.3295ZM165.483 23.9886C166.195 23.9886 166.824 23.8485 167.369 23.5682C167.915 23.2803 168.343 22.8939 168.653 22.4091C168.964 21.9242 169.119 21.375 169.119 20.7614V18.9091C168.968 19.0076 168.759 19.0985 168.494 19.1818C168.237 19.2576 167.945 19.3295 167.619 19.3977C167.294 19.4583 166.968 19.5152 166.642 19.5682C166.316 19.6136 166.021 19.6553 165.756 19.6932C165.188 19.7765 164.691 19.9091 164.267 20.0909C163.843 20.2727 163.513 20.5189 163.278 20.8295C163.044 21.1326 162.926 21.5114 162.926 21.9659C162.926 22.625 163.165 23.1288 163.642 23.4773C164.127 23.8182 164.741 23.9886 165.483 23.9886ZM182.523 16.9091V27H177.682V9.54545H182.295V12.625H182.5C182.886 11.6098 183.534 10.8068 184.443 10.2159C185.352 9.61742 186.455 9.31818 187.75 9.31818C188.962 9.31818 190.019 9.58333 190.92 10.1136C191.822 10.6439 192.523 11.4015 193.023 12.3864C193.523 13.3636 193.773 14.5303 193.773 15.8864V27H188.932V16.75C188.939 15.6818 188.667 14.8485 188.114 14.25C187.561 13.6439 186.799 13.3409 185.83 13.3409C185.178 13.3409 184.602 13.4811 184.102 13.7614C183.61 14.0417 183.223 14.4508 182.943 14.9886C182.67 15.5189 182.53 16.1591 182.523 16.9091ZM204.02 27.2841C202.694 27.2841 201.493 26.9432 200.418 26.2614C199.349 25.572 198.501 24.5606 197.872 23.2273C197.251 21.8864 196.94 20.2424 196.94 18.2955C196.94 16.2955 197.262 14.6326 197.906 13.3068C198.55 11.9735 199.406 10.9773 200.474 10.3182C201.55 9.65152 202.728 9.31818 204.009 9.31818C204.986 9.31818 205.8 9.48485 206.452 9.81818C207.111 10.1439 207.641 10.553 208.043 11.0455C208.452 11.5303 208.762 12.0076 208.974 12.4773H209.122V3.72727H213.952V27H209.179V24.2045H208.974C208.747 24.6894 208.425 25.1705 208.009 25.6477C207.599 26.1174 207.065 26.5076 206.406 26.8182C205.755 27.1288 204.959 27.2841 204.02 27.2841ZM205.554 23.4318C206.334 23.4318 206.993 23.2197 207.531 22.7955C208.077 22.3636 208.493 21.7614 208.781 20.9886C209.077 20.2159 209.224 19.3106 209.224 18.2727C209.224 17.2348 209.08 16.3333 208.793 15.5682C208.505 14.803 208.088 14.2121 207.543 13.7955C206.997 13.3788 206.334 13.1705 205.554 13.1705C204.759 13.1705 204.088 13.3864 203.543 13.8182C202.997 14.25 202.584 14.8485 202.304 15.6136C202.024 16.3788 201.884 17.2652 201.884 18.2727C201.884 19.2879 202.024 20.1856 202.304 20.9659C202.592 21.7386 203.005 22.3447 203.543 22.7841C204.088 23.2159 204.759 23.4318 205.554 23.4318ZM217.932 27V9.54545H222.773V27H217.932ZM220.364 7.29545C219.644 7.29545 219.027 7.05682 218.511 6.57954C218.004 6.0947 217.75 5.51515 217.75 4.84091C217.75 4.17424 218.004 3.60227 218.511 3.125C219.027 2.64015 219.644 2.39773 220.364 2.39773C221.083 2.39773 221.697 2.64015 222.205 3.125C222.72 3.60227 222.977 4.17424 222.977 4.84091C222.977 5.51515 222.72 6.0947 222.205 6.57954C221.697 7.05682 221.083 7.29545 220.364 7.29545ZM233.082 27.2841C231.757 27.2841 230.556 26.9432 229.48 26.2614C228.412 25.572 227.563 24.5606 226.935 23.2273C226.313 21.8864 226.003 20.2424 226.003 18.2955C226.003 16.2955 226.325 14.6326 226.969 13.3068C227.613 11.9735 228.469 10.9773 229.537 10.3182C230.613 9.65152 231.791 9.31818 233.071 9.31818C234.048 9.31818 234.863 9.48485 235.514 9.81818C236.173 10.1439 236.704 10.553 237.105 11.0455C237.514 11.5303 237.825 12.0076 238.037 12.4773H238.185V3.72727H243.014V27H238.241V24.2045H238.037C237.81 24.6894 237.488 25.1705 237.071 25.6477C236.662 26.1174 236.128 26.5076 235.469 26.8182C234.817 27.1288 234.022 27.2841 233.082 27.2841ZM234.616 23.4318C235.397 23.4318 236.056 23.2197 236.594 22.7955C237.139 22.3636 237.556 21.7614 237.844 20.9886C238.139 20.2159 238.287 19.3106 238.287 18.2727C238.287 17.2348 238.143 16.3333 237.855 15.5682C237.567 14.803 237.151 14.2121 236.605 13.7955C236.06 13.3788 235.397 13.1705 234.616 13.1705C233.821 13.1705 233.151 13.3864 232.605 13.8182C232.06 14.25 231.647 14.8485 231.366 15.6136C231.086 16.3788 230.946 17.2652 230.946 18.2727C230.946 19.2879 231.086 20.1856 231.366 20.9659C231.654 21.7386 232.067 22.3447 232.605 22.7841C233.151 23.2159 233.821 23.4318 234.616 23.4318ZM254.881 27.3409C253.116 27.3409 251.589 26.9659 250.301 26.2159C249.021 25.4583 248.032 24.4053 247.335 23.0568C246.638 21.7008 246.29 20.1288 246.29 18.3409C246.29 16.5379 246.638 14.9621 247.335 13.6136C248.032 12.2576 249.021 11.2045 250.301 10.4545C251.589 9.69697 253.116 9.31818 254.881 9.31818C256.646 9.31818 258.169 9.69697 259.449 10.4545C260.737 11.2045 261.729 12.2576 262.426 13.6136C263.123 14.9621 263.472 16.5379 263.472 18.3409C263.472 20.1288 263.123 21.7008 262.426 23.0568C261.729 24.4053 260.737 25.4583 259.449 26.2159C258.169 26.9659 256.646 27.3409 254.881 27.3409ZM254.903 23.5909C255.706 23.5909 256.377 23.3636 256.915 22.9091C257.453 22.447 257.858 21.8182 258.131 21.0227C258.411 20.2273 258.551 19.322 258.551 18.3068C258.551 17.2917 258.411 16.3864 258.131 15.5909C257.858 14.7955 257.453 14.1667 256.915 13.7045C256.377 13.2424 255.706 13.0114 254.903 13.0114C254.093 13.0114 253.411 13.2424 252.858 13.7045C252.313 14.1667 251.9 14.7955 251.619 15.5909C251.347 16.3864 251.21 17.2917 251.21 18.3068C251.21 19.322 251.347 20.2273 251.619 21.0227C251.9 21.8182 252.313 22.447 252.858 22.9091C253.411 23.3636 254.093 23.5909 254.903 23.5909ZM276.352 17.5682V19.8523C275.049 19.8523 274.14 20.1136 273.625 20.6364C273.117 21.1591 272.864 22.0038 272.864 23.1705V25.6932C272.864 27.0947 272.667 28.2159 272.273 29.0568C271.886 29.9053 271.341 30.5455 270.636 30.9773C269.939 31.4091 269.11 31.697 268.148 31.8409C267.193 31.9848 266.14 32.0568 264.989 32.0568V28.4318C265.883 28.4318 266.561 28.3144 267.023 28.0795C267.492 27.8523 267.811 27.4962 267.977 27.0114C268.144 26.5341 268.227 25.9318 268.227 25.2045V21.8864C268.227 21.303 268.333 20.7538 268.545 20.2386C268.758 19.7159 269.152 19.2576 269.727 18.8636C270.303 18.4621 271.125 18.1477 272.193 17.9205C273.261 17.6856 274.648 17.5682 276.352 17.5682ZM264.989 3.29545C266.14 3.29545 267.193 3.36742 268.148 3.51136C269.11 3.6553 269.939 3.94318 270.636 4.375C271.341 4.80682 271.886 5.44697 272.273 6.29545C272.667 7.13636 272.864 8.25758 272.864 9.65909V12.1705C272.864 13.3371 273.117 14.1818 273.625 14.7045C274.14 15.2273 275.049 15.4886 276.352 15.4886V17.7727C274.648 17.7727 273.261 17.6591 272.193 17.4318C271.125 17.197 270.303 16.8826 269.727 16.4886C269.152 16.0871 268.758 15.6288 268.545 15.1136C268.333 14.5909 268.227 14.0417 268.227 13.4659V10.1477C268.227 9.41288 268.144 8.80682 267.977 8.32954C267.811 7.8447 267.492 7.48864 267.023 7.26136C266.561 7.02651 265.883 6.90909 264.989 6.90909V3.29545ZM276.352 15.4886V19.8523H272.273V15.4886H276.352Z" fill="white"/>
</svg>
